# xmcd
#
# Track frame offsets:
#	150
#	13749
#	28820
#	42952
#	56185
#	72764
#	89488
#	104124
#	118760
#	134665
#	149871
#	163470
#	178541
#
# Disc length: 2568 seconds
#
# Revision: 0
# Processed by: cddbd v1.5.2PL0 Copyright (c) Steve Scherf et al.
# Submitted via: EasyCDDAExtractor 16.0.8.1
#
DISCID=d30a060d
DTITLE=FRED E HUMBERTO - PIRRAÇA E IGNORANCIA
DYEAR=1900
DGENRE=
TTITLE0=PIRRAÇA E IGNORANCIA
TTITLE1=TA JUDIANDO
TTITLE2=ME ENSINA
TTITLE3=COWBOY BABALU
TTITLE4=COPO DE WHISKY
TTITLE5=SUA CURA
TTITLE6=GOSTO AMARGO
TTITLE7=SOU LISO
TTITLE8=QUATRO SEMANAS DE AMOR
TTITLE9=JOGO PERDIDO
TTITLE10=PIRRAÇA E IGNORANCIA
TTITLE11=TA JUDIANDO
TTITLE12=ME ENSINA
EXTD=
EXTT0=
EXTT1=
EXTT2=
EXTT3=
EXTT4=
EXTT5=
EXTT6=
EXTT7=
EXTT8=
EXTT9=
EXTT10=
EXTT11=
EXTT12=
PLAYORDER=
